<?xml version="1.0" encoding="UTF-8"?>
<svg width="500px" height="500px" viewBox="0 0 500 500" version="1.1" xmlns="http://www.w3.org/2000/svg" xmlns:xlink="http://www.w3.org/1999/xlink">
    <!-- Generator: Sketch 54.1 (76490) - https://sketchapp.com -->
    <title>djrlj694_bold_500_white_v2</title>
    <desc>Created with Sketch.</desc>
    <g id="Page-1" stroke="none" stroke-width="1" fill="none" fill-rule="evenodd">
        <g id="djrlj694_bold_500_white_v2" fill="#000000" fill-rule="nonzero">
            <g id="Group" transform="translate(250.000000, 250.000000) scale(-1, 1) rotate(-180.000000) translate(-250.000000, -250.000000) ">
                <path d="M500,250 C500,388.071187 388.071187,500 250,500 C111.928813,500 -4.3889211e-15,388.071187 -4.3889211e-15,250 C-4.3889211e-15,111.928813 111.928813,-5.68434189e-14 250,-5.68434189e-14 C388.071187,-5.68434189e-14 500,111.928813 500,250 Z M262.5,250 C262.5,243.096441 256.903559,237.5 250,237.5 C243.096441,237.5 237.5,243.096441 237.5,250 C237.5,256.903559 243.096441,262.5 250,262.5 C256.903559,262.5 262.5,256.903559 262.5,250 Z M409.228516,175.732422 C403.662109,163.818359 394.873047,155.175781 382.861328,149.804688 C375.830078,146.679688 368.75,145.117188 361.621094,145.117188 C356.542969,145.117188 351.416015,145.898438 346.240234,147.460938 C343.798828,148.242187 341.455078,149.169922 339.208984,150.244141 C330.224609,154.44336 322.998047,160.69336 317.529297,168.994141 C312.548828,176.513672 309.667969,184.765625 308.886719,193.75 C308.789062,195.3125 308.740234,196.826172 308.740234,198.291016 C308.740234,205.908203 310.40039,213.232422 313.720703,220.263672 C317.724609,228.955078 319.921875,237.988281 320.3125,247.363281 L320.3125,249.707031 C320.3125,258.105469 318.896484,266.210938 316.064453,274.023438 C312.939453,282.617187 308.300781,290.332031 302.148438,297.167969 C295.800781,304.199219 288.330078,309.716797 279.736328,313.720703 C271.044922,317.724609 262.011719,319.921875 252.636719,320.3125 L250.292969,320.3125 C241.894531,320.3125 233.789062,318.896484 225.976562,316.064453 C217.382813,312.939453 209.667969,308.300781 202.832031,302.148438 C195.800781,295.800781 190.283203,288.330078 186.279297,279.736328 C182.275391,271.044922 180.078125,262.011719 179.6875,252.636719 L179.6875,250.292969 C179.6875,241.894531 181.103516,233.789062 183.935547,225.976562 C187.060547,217.382813 191.699219,209.667969 197.851562,202.832031 C204.199219,195.800781 211.669922,190.283203 220.263672,186.279297 C229.638672,181.884766 239.355469,179.6875 249.414062,179.6875 C250.878906,179.6875 252.294922,179.736328 253.662109,179.833984 C264.892578,180.419922 275.390625,183.496094 285.15625,189.0625 L302.734375,158.740234 C288.085938,150.244141 272.314453,145.556641 255.419922,144.677734 C253.564453,144.580078 251.708985,144.53125 249.853516,144.53125 C234.521485,144.53125 219.726563,147.851563 205.46875,154.492188 C192.480469,160.546875 181.25,168.798828 171.777344,179.248047 C162.597656,189.404297 155.664062,200.976563 150.976562,213.964844 C146.679687,225.683594 144.53125,237.695313 144.53125,250 L144.53125,253.808594 C145.117187,267.96875 148.4375,281.542969 154.492188,294.53125 C160.546875,307.519531 168.798828,318.75 179.248047,328.222656 C189.404297,337.402344 200.976563,344.335938 213.964844,349.023438 C225.683594,353.320313 237.695313,355.46875 250,355.46875 L253.808594,355.46875 C267.96875,354.882813 281.542969,351.5625 294.53125,345.507812 C313.378906,336.71875 328.271484,323.583985 339.208984,306.103516 C349.951172,289.013672 355.371094,270.458984 355.46875,250.439453 L355.46875,249.707031 C355.46875,234.277344 352.148437,219.53125 345.507812,205.46875 C344.335937,203.027344 343.75,200.585938 343.75,198.144531 C343.75,196.09375 344.140625,194.042969 344.921875,191.992188 C346.582031,187.402344 349.609375,184.082031 354.003906,182.03125 C356.445313,180.859375 358.886719,180.273438 361.328125,180.273438 C363.378906,180.273438 365.429688,180.664063 367.480469,181.445312 C372.070312,183.105469 375.390625,186.132813 377.441406,190.527344 C385.058594,206.933594 389.355469,224.121094 390.332031,242.089844 C390.527344,245.019531 390.625,247.900391 390.625,250.732422 C390.625,275.830078 384.130859,299.365234 371.142578,321.337891 C356.494141,346.337891 335.9375,365.039063 309.472656,377.441406 C292.1875,385.449219 274.072266,389.794922 255.126953,390.478516 C253.36914,390.576172 251.5625,390.625 249.707031,390.625 C233.398438,390.625 217.480469,387.792969 201.953125,382.128906 C184.667969,375.878906 169.238281,366.601562 155.664062,354.296875 C141.699219,341.699219 130.664063,326.757813 122.558594,309.472656 C114.550781,292.1875 110.205078,274.072266 109.521484,255.126953 C109.423828,253.36914 109.375,251.5625 109.375,249.707031 C109.375,233.398438 112.207031,217.480469 117.871094,201.953125 C124.121094,184.667969 133.398438,169.238281 145.703125,155.664062 C158.300781,141.699219 173.242187,130.664063 190.527344,122.558594 C209.375,113.769531 229.101562,109.375 249.707031,109.375 L251.025391,109.375 C271.435547,109.570313 290.917969,113.964844 309.472656,122.558594 C322.070313,128.417969 335.205078,131.347656 348.876953,131.347656 L349.609375,131.347656 L349.609375,96.191406 L348.876953,96.191406 C340.380859,96.191406 332.226562,94.3847653 324.414062,90.771484 L324.267578,90.771484 L324.121094,90.625 C304.6875,81.6406253 284.277344,76.3183597 262.890625,74.658203 C258.398438,74.3652343 253.955078,74.21875 249.560547,74.21875 C223.97461,74.21875 199.365235,79.736328 175.732422,90.771484 C154.150391,100.830078 135.449219,114.648437 119.628906,132.226562 C104.296875,149.121093 92.724609,168.359375 84.912109,189.941406 C77.783203,209.277343 74.21875,229.15039 74.21875,249.560547 C74.21875,251.904297 74.267578,254.199219 74.365234,256.445312 C75.2441407,280.078125 80.7128907,302.685547 90.771484,324.267578 C100.830078,345.849609 114.599609,364.550781 132.080078,380.371094 C149.072265,395.703125 168.359375,407.275391 189.941406,415.087891 C209.277343,422.216797 229.15039,425.78125 249.560547,425.78125 C251.904297,425.78125 254.199219,425.732422 256.445312,425.634766 C280.078125,424.755859 302.685547,419.287109 324.267578,409.228516 C345.849609,399.169922 364.550781,385.351563 380.371094,367.773438 C395.703125,350.878907 407.275391,331.640625 415.087891,310.058594 C422.216797,290.722657 425.78125,270.84961 425.78125,250.439453 C425.78125,248.095703 425.732422,245.800781 425.634766,243.554688 C424.755859,219.921875 419.287109,197.314453 409.228516,175.732422 Z" id="Combined-Shape"></path>
            </g>
        </g>
    </g>
</svg>