<?xml version="1.0" encoding="UTF-8" standalone="yes"?>
<!DOCTYPE svg PUBLIC "-//W3C//DTD SVG 1.1//EN" "http://www.w3.org/Graphics/SVG/1.1/DTD/svg11.dtd">

<svg width="500" height="500" viewBox="0 0 500 500" xmlns="http://www.w3.org/2000/svg" xmlns:xlink="http://www.w3.org/1999/xlink" version="1.1" baseProfile="full">
    <g transform="scale(1,-1) translate(0,-500)">
        <path d="M 475.999999 251.000000 C 475.999999 375.264068 375.264068 475.999999 251.000000 475.999999 C 126.735932 475.999999 26.000001 375.264068 26.000001 251.000000 C 26.000001 126.735932 126.735932 26.000001 251.000000 26.000001 C 375.264068 26.000001 475.999999 126.735932 475.999999 251.000000 Z M 500.999999 251.000000 C 500.999999 112.928813 389.071187 1.000001 251.000000 1.000001 C 112.928813 1.000001 1.000001 112.928813 1.000001 251.000000 C 1.000001 389.071187 112.928813 500.999999 251.000000 500.999999 C 389.071187 500.999999 500.999999 389.071187 500.999999 251.000000 Z" transform="scale(1.000000,1.000000) translate(-1.000000,-1.000000)" opacity="1.000000"></path>
        <path d="M 51.500000 39.000000 C 51.500000 45.903559 45.903559 51.500000 39.000000 51.500000 C 32.096441 51.500000 26.500000 45.903559 26.500000 39.000000 C 26.500000 32.096441 32.096441 26.500000 39.000000 26.500000 C 45.903559 26.500000 51.500000 32.096441 51.500000 39.000000 Z M 76.500000 39.000000 C 76.500000 18.289322 59.710678 1.500000 39.000000 1.500000 C 18.289322 1.500000 1.500000 18.289322 1.500000 39.000000 C 1.500000 59.710678 18.289322 76.500000 39.000000 76.500000 C 59.710678 76.500000 76.500000 59.710678 76.500000 39.000000 Z" transform="scale(1.000000,1.000000) translate(211.000000,211.000000)" fill="#000000" opacity="1.000000"></path>
        <path d="M 336.228516 102.732422 Q 327.878906 84.861328 309.861328 76.804688 Q 299.314453 72.117188 288.621094 72.117188 Q 281.003906 72.117188 273.240234 74.460938 Q 269.578125 75.632812 266.208984 77.244141 Q 252.732422 83.542969 244.529297 95.994141 Q 237.058594 107.273438 235.886719 120.750000 Q 235.740234 123.093750 235.740234 125.291016 Q 235.740234 136.716797 240.720703 147.263672 Q 246.726562 160.300781 247.312500 174.363281 L 247.312500 176.707031 Q 247.312500 189.304688 243.064453 201.023438 Q 238.376953 213.914062 229.148438 224.167969 Q 219.626953 234.714844 206.736328 240.720703 Q 193.699219 246.726562 179.636719 247.312500 L 177.292969 247.312500 Q 164.695312 247.312500 152.976562 243.064453 Q 140.085938 238.376953 129.832031 229.148438 Q 119.285156 219.626953 113.279297 206.736328 Q 107.273438 193.699219 106.687500 179.636719 L 106.687500 177.292969 Q 106.687500 164.695312 110.935547 152.976562 Q 115.623047 140.085938 124.851562 129.832031 Q 134.373047 119.285156 147.263672 113.279297 Q 161.326172 106.687500 176.414062 106.687500 Q 178.611328 106.687500 180.662109 106.833984 Q 197.507812 107.712891 212.156250 116.062500 L 229.734375 85.740234 Q 207.761719 72.996094 182.419922 71.677734 Q 179.636719 71.531250 176.853516 71.531250 Q 153.855469 71.531250 132.468750 81.492188 Q 112.986328 90.574219 98.777344 106.248047 Q 85.007812 121.482422 77.976562 140.964844 Q 71.531250 158.542969 71.531250 177.000000 L 71.531250 180.808594 Q 72.410156 202.048828 81.492188 221.531250 Q 90.574219 241.013672 106.248047 255.222656 Q 121.482422 268.992188 140.964844 276.023438 Q 158.542969 282.468750 177.000000 282.468750 L 180.808594 282.468750 Q 202.048828 281.589844 221.531250 272.507812 Q 249.802734 259.324219 266.208984 233.103516 Q 282.322266 207.468750 282.468750 177.439453 L 282.468750 176.707031 Q 282.468750 153.562500 272.507812 132.468750 Q 270.750000 128.806641 270.750000 125.144531 Q 270.750000 122.068359 271.921875 118.992188 Q 274.412109 112.107422 281.003906 109.031250 Q 284.666016 107.273438 288.328125 107.273438 Q 291.404297 107.273438 294.480469 108.445312 Q 301.365234 110.935547 304.441406 117.527344 Q 315.867188 142.136719 317.332031 169.089844 Q 317.625000 173.484375 317.625000 177.732422 Q 317.625000 215.378906 298.142578 248.337891 Q 276.169922 285.837891 236.472656 304.441406 Q 210.544922 316.453125 182.126953 317.478516 Q 179.490234 317.625000 176.707031 317.625000 Q 152.244141 317.625000 128.953125 309.128906 Q 103.025391 299.753906 82.664062 281.296875 Q 61.716797 262.400391 49.558594 236.472656 Q 37.546875 210.544922 36.521484 182.126953 Q 36.375000 179.490234 36.375000 176.707031 Q 36.375000 152.244141 44.871094 128.953125 Q 54.246094 103.025391 72.703125 82.664062 Q 91.599609 61.716797 117.527344 49.558594 Q 145.798828 36.375000 176.707031 36.375000 L 178.025391 36.375000 Q 208.640625 36.667969 236.472656 49.558594 Q 255.369141 58.347656 275.876953 58.347656 L 276.609375 58.347656 L 276.609375 23.191406 L 275.876953 23.191406 Q 263.132812 23.191406 251.414062 17.771484 L 251.267578 17.771484 L 251.121094 17.625000 Q 221.970703 4.148438 189.890625 1.658203 Q 183.152344 1.218750 176.560547 1.218750 Q 138.181641 1.218750 102.732422 17.771484 Q 70.359375 32.859375 46.628906 59.226562 Q 23.630859 84.568359 11.912109 116.941406 Q 1.218750 145.945312 1.218750 176.560547 Q 1.218750 180.076172 1.365234 183.445312 Q 2.683594 218.894531 17.771484 251.267578 Q 32.859375 283.640625 59.080078 307.371094 Q 84.568359 330.369141 116.941406 342.087891 Q 145.945312 352.781250 176.560547 352.781250 Q 180.076172 352.781250 183.445312 352.634766 Q 218.894531 351.316406 251.267578 336.228516 Q 283.640625 321.140625 307.371094 294.773438 Q 330.369141 269.431641 342.087891 237.058594 Q 352.781250 208.054688 352.781250 177.439453 Q 352.781250 173.923828 352.634766 170.554688 Q 351.316406 135.105469 336.228516 102.732422 Z" transform="scale(1.000000,1.000000) translate(73.000000,73.000000)" fill="#000000" opacity="1.000000"></path>
    </g>
</svg>